<?xml version="1.0" standalone="no"?>
<!DOCTYPE svg PUBLIC "-//W3C//DTD SVG 20010904//EN"
 "http://www.w3.org/TR/2001/REC-SVG-20010904/DTD/svg10.dtd">
<svg version="1.0" xmlns="http://www.w3.org/2000/svg"
 width="1280.000000pt" height="1280.000000pt" viewBox="0 0 1280.000000 1280.000000"
 preserveAspectRatio="xMidYMid meet">
<g transform="translate(0.000000,1280.000000) scale(0.100000,-0.100000)"
fill="#000000" stroke="none">
<path d="M6100 12794 c-374 -25 -548 -44 -810 -90 -1350 -236 -2613 -918
-3548 -1917 -915 -977 -1488 -2166 -1676 -3477 -49 -339 -60 -507 -60 -910 0
-403 11 -571 60 -910 176 -1225 698 -2364 1514 -3300 136 -156 435 -456 598
-598 971 -851 2159 -1386 3427 -1541 306 -38 447 -46 795 -46 348 0 489 8 795
46 1258 154 2451 688 3415 1529 153 133 463 444 603 604 820 935 1345 2076
1521 3306 49 339 60 507 60 910 0 402 -11 570 -60 910 -195 1370 -827 2632
-1810 3614 -654 654 -1415 1144 -2289 1474 -532 200 -1098 327 -1720 382 -113
11 -716 21 -815 14z m861 -783 c515 -51 1031 -177 1514 -368 178 -71 475 -206
475 -216 0 -3 -158 -278 -351 -612 -193 -334 -353 -613 -355 -620 -6 -15 415
-260 427 -248 4 4 166 283 360 618 193 336 353 612 355 614 6 7 231 -146 389
-264 448 -336 804 -692 1140 -1140 153 -204 212 -295 197 -303 -6 -4 -297
-171 -646 -372 -349 -201 -635 -368 -636 -372 0 -7 227 -406 240 -421 5 -6
1007 564 1302 740 9 5 100 -174 185 -367 204 -459 351 -969 422 -1465 24 -163
51 -444 51 -527 l0 -58 -715 0 -715 0 0 -250 0 -250 716 0 717 0 -7 -107 c-47
-713 -231 -1409 -548 -2074 -48 -101 -65 -128 -77 -124 -9 4 -313 178 -676
387 -363 209 -662 382 -665 383 -7 4 -254 -424 -249 -430 2 -2 306 -178 674
-390 369 -213 672 -389 674 -391 3 -2 -31 -57 -75 -122 -665 -987 -1614 -1736
-2719 -2147 -478 -177 -922 -278 -1470 -332 -121 -12 -265 -16 -495 -16 -326
0 -507 11 -775 49 -1054 148 -2019 575 -2835 1255 -252 209 -516 473 -725 724
-145 173 -436 578 -424 589 2 2 279 162 614 355 336 194 613 356 617 359 12
12 -235 433 -250 427 -7 -3 -286 -162 -619 -355 -333 -192 -609 -350 -613
-350 -4 0 -35 58 -69 130 -299 629 -473 1258 -536 1940 -8 91 -15 182 -15 203
l0 37 715 0 715 0 0 250 0 250 -715 0 -715 0 0 58 c0 83 27 364 51 527 59 410
174 845 324 1230 61 156 207 481 222 496 4 4 280 -151 613 -343 333 -193 612
-352 621 -355 23 -7 267 416 247 428 -7 5 -287 167 -621 360 -411 238 -606
356 -603 365 11 28 171 260 270 392 327 433 678 784 1116 1116 142 108 289
210 295 204 2 -1 146 -250 320 -553 175 -302 335 -580 356 -617 l39 -67 203
116 c111 64 207 121 214 127 12 11 -10 51 -575 1029 l-132 228 183 89 c548
266 1091 435 1672 519 173 25 473 53 486 46 5 -4 9 -287 9 -718 l0 -712 245 0
245 0 0 716 c0 394 2 718 4 720 6 6 251 -7 387 -20z"/>
<path d="M6240 6129 c-172 -29 -329 -176 -376 -353 -39 -147 6 -322 113 -437
96 -103 206 -150 348 -150 143 0 252 47 351 153 l48 52 481 -33 c264 -17 741
-50 1060 -71 319 -22 915 -62 1325 -90 410 -28 974 -66 1255 -85 280 -19 516
-35 525 -34 17 1 -70 17 -420 78 -321 55 -1179 203 -1490 256 -140 24 -520 89
-845 145 -561 97 -918 158 -1570 270 -280 47 -291 50 -310 77 -90 124 -208
203 -335 223 -74 11 -84 11 -160 -1z"/>
</g>
</svg>
